<svg width="32" height="32" viewBox="0 0 32 32" fill="none" xmlns="http://www.w3.org/2000/svg">
<g clip-path="url(#clip0_245_58)">
<path d="M14.6545 0.668024L0.669231 14.6415C0.490388 14.8197 0.348481 15.0314 0.251653 15.2645C0.154824 15.4976 0.10498 15.7476 0.10498 16C0.10498 16.2525 0.154824 16.5024 0.251653 16.7355C0.348481 16.9687 0.490388 17.1804 0.669231 17.3585L14.6545 31.332C14.8329 31.5106 15.0447 31.6522 15.2779 31.7488C15.511 31.8455 15.761 31.8952 16.0134 31.8952C16.2657 31.8952 16.5157 31.8455 16.7488 31.7488C16.982 31.6522 17.1938 31.5106 17.3722 31.332L23.2365 25.4728C23.3965 25.3128 23.5235 25.1229 23.6101 24.9139C23.6967 24.7048 23.7412 24.4808 23.7412 24.2545C23.7412 24.0283 23.6967 23.8042 23.6101 23.5952C23.5235 23.3862 23.3965 23.1962 23.2365 23.0363C22.913 22.7131 22.4745 22.5315 22.0172 22.5315C21.56 22.5315 21.1214 22.7131 20.798 23.0363L16.353 27.4775C16.1655 27.665 15.881 27.665 15.6945 27.4775L4.52573 16.3193C4.33898 16.1318 4.33898 15.8478 4.52573 15.6613L15.6945 4.50202C15.881 4.31552 16.1652 4.31552 16.3527 4.50202L20.798 8.94327C21.1214 9.26646 21.56 9.44801 22.0172 9.44801C22.4745 9.44801 22.913 9.26646 23.2365 8.94327C23.3965 8.78332 23.5235 8.5934 23.6101 8.38437C23.6967 8.17533 23.7412 7.95129 23.7412 7.72502C23.7412 7.49876 23.6967 7.27471 23.6101 7.06568C23.5235 6.85665 23.3965 6.66673 23.2365 6.50677L17.3732 0.648524C16.6182 -0.0859764 15.4035 -0.0799765 14.6545 0.668024Z" fill="url(#paint0_linear_245_58)"/>
<path d="M14.6545 0.668024L0.669231 14.6415C0.490388 14.8197 0.348481 15.0314 0.251653 15.2645C0.154824 15.4976 0.10498 15.7476 0.10498 16C0.10498 16.2525 0.154824 16.5024 0.251653 16.7355C0.348481 16.9687 0.490388 17.1804 0.669231 17.3585L14.6545 31.332C14.8329 31.5106 15.0447 31.6522 15.2779 31.7488C15.511 31.8455 15.761 31.8952 16.0134 31.8952C16.2657 31.8952 16.5157 31.8455 16.7488 31.7488C16.982 31.6522 17.1938 31.5106 17.3722 31.332L23.2365 25.4728C23.3965 25.3128 23.5235 25.1229 23.6101 24.9139C23.6967 24.7048 23.7412 24.4808 23.7412 24.2545C23.7412 24.0283 23.6967 23.8042 23.6101 23.5952C23.5235 23.3862 23.3965 23.1962 23.2365 23.0363C22.913 22.7131 22.4745 22.5315 22.0172 22.5315C21.56 22.5315 21.1214 22.7131 20.798 23.0363L16.353 27.4775C16.1655 27.665 15.881 27.665 15.6945 27.4775L4.52573 16.3193C4.33898 16.1318 4.33898 15.8478 4.52573 15.6613L15.6945 4.50202C16.1605 4.10052 16.9202 3.28702 18.0372 3.09677C18.8667 2.95527 19.7736 3.26644 20.758 4.03027C20.1 3.37227 18.9717 2.24502 17.3732 0.648524C16.6182 -0.0859764 15.4035 -0.0799765 14.6545 0.668024Z" fill="url(#paint1_linear_245_58)"/>
<path d="M24.5901 21.7363C24.9135 22.0594 25.352 22.2409 25.8092 22.2409C26.2664 22.2409 26.7049 22.0594 27.0283 21.7363L31.3536 17.415C31.5323 17.2369 31.6741 17.0253 31.7709 16.7923C31.8677 16.5593 31.9175 16.3095 31.9175 16.0571C31.9175 15.8048 31.8677 15.555 31.7709 15.322C31.6741 15.089 31.5323 14.8773 31.3536 14.6993L26.9903 10.3545C26.6661 10.0317 26.227 9.85076 25.7695 9.85132C25.3119 9.85188 24.8733 10.0339 24.5498 10.3575C24.3896 10.5174 24.2625 10.7073 24.1758 10.9163C24.0891 11.1254 24.0444 11.3494 24.0444 11.5758C24.0444 11.8021 24.0891 12.0262 24.1758 12.2352C24.2625 12.4443 24.3896 12.6342 24.5498 12.794L27.4973 15.7383C27.5415 15.7808 27.5766 15.8319 27.6006 15.8884C27.6246 15.9448 27.637 16.0055 27.637 16.0669C27.637 16.1282 27.6246 16.189 27.6006 16.2454C27.5766 16.3019 27.5415 16.3529 27.4973 16.3955L24.5898 19.3008C24.4297 19.4605 24.3026 19.6503 24.2159 19.8593C24.1292 20.0683 24.0845 20.2923 24.0845 20.5185C24.0845 20.7448 24.1292 20.9688 24.2159 21.1777C24.3026 21.3867 24.4299 21.5765 24.5901 21.7363Z" fill="url(#paint2_linear_245_58)"/>
<path fill-rule="evenodd" clip-rule="evenodd" d="M19.8594 16.0701C19.8594 13.9861 18.1689 12.2966 16.0829 12.2966C13.9979 12.2966 12.3066 13.9861 12.3066 16.0701C12.3066 18.1531 13.9979 19.8426 16.0829 19.8426C18.1689 19.8426 19.8594 18.1531 19.8594 16.0701Z" fill="url(#paint3_linear_245_58)"/>
</g>
<defs>
<linearGradient id="paint0_linear_245_58" x1="14.7825" y1="0.101524" x2="28.077" y2="8.22696" gradientUnits="userSpaceOnUse">
<stop stop-color="#4285EB"/>
<stop offset="1" stop-color="#2EC7FF"/>
</linearGradient>
<linearGradient id="paint1_linear_245_58" x1="16.5552" y1="0.101524" x2="9.9914" y2="34.0406" gradientUnits="userSpaceOnUse">
<stop stop-color="#29CDFF"/>
<stop offset="0.379" stop-color="#148EFF"/>
<stop offset="1" stop-color="#0A60FF"/>
</linearGradient>
<linearGradient id="paint2_linear_245_58" x1="29.5316" y1="8.23986" x2="20.9867" y2="21.5995" gradientUnits="userSpaceOnUse">
<stop stop-color="#FA816E"/>
<stop offset="0.415" stop-color="#F74A5C"/>
<stop offset="1" stop-color="#F51D2C"/>
</linearGradient>
<linearGradient id="paint3_linear_245_58" x1="17.4501" y1="9.60299" x2="14.6075" y2="20.9683" gradientUnits="userSpaceOnUse">
<stop stop-color="#FA8E7D"/>
<stop offset="0.513" stop-color="#F74A5C"/>
<stop offset="1" stop-color="#F51D2C"/>
</linearGradient>
<clipPath id="clip0_245_58">
<rect width="32" height="32" fill="white"/>
</clipPath>
</defs>
</svg>
