<svg width="32" height="32" viewBox="0 0 32 32" fill="none" xmlns="http://www.w3.org/2000/svg">
<path d="M5.90176 27.201L3.65576 2H28.3438L26.0948 27.197L15.9848 30L5.90176 27.201Z" fill="#1572B6"/>
<path d="M16 27.858L24.17 25.593L26.092 4.06104H16V27.858Z" fill="#33A9DC"/>
<path d="M16 13.1911H20.09L20.372 10.0261H16V6.93506H16.011H23.75L23.676 7.76406L22.917 16.2821H16V13.1911Z" fill="white"/>
<path d="M16.0192 21.2179L16.0052 21.2219L12.5632 20.2919L12.3432 17.8269H10.6702H9.24023L9.67323 22.6799L16.0042 24.4379L16.0192 24.4339V21.2179Z" fill="#EBEBEB"/>
<path d="M19.8268 16.1509L19.4548 20.2899L16.0078 21.2199V24.4359L22.3438 22.6799L22.3908 22.1579L22.9278 16.1509H19.8268Z" fill="white"/>
<path d="M16.0111 6.93506V8.85506V10.0181V10.0261H8.55507H8.54507L8.48307 9.33106L8.34207 7.76406L8.26807 6.93506H16.0111Z" fill="#EBEBEB"/>
<path d="M16.0002 13.1909V15.1109V16.2739V16.2819H12.6112H12.6012L12.5392 15.5869L12.3992 14.0199L12.3252 13.1909H16.0002Z" fill="#EBEBEB"/>
</svg>
