<svg width="32" height="32" viewBox="0 0 32 32" fill="none" xmlns="http://www.w3.org/2000/svg">
<path d="M5.90179 27.201L3.65479 2H28.3448L26.0948 27.197L15.9848 30L5.90179 27.201Z" fill="#E44F26"/>
<path d="M16 27.858L24.17 25.593L26.092 4.06104H16V27.858Z" fill="#F1662A"/>
<path d="M16 13.4069H11.91L11.628 10.2419H16V7.15088H15.989H8.25L8.324 7.98088L9.083 16.4979H16V13.4069Z" fill="#EBEBEB"/>
<path d="M16.0002 21.4339L15.9862 21.4379L12.5442 20.5089L12.3242 18.0439H10.6512H9.22119L9.65419 22.8959L15.9862 24.6539L16.0002 24.6499V21.4339Z" fill="#EBEBEB"/>
<path d="M15.9888 13.407V16.498H19.7948L19.4368 20.507L15.9888 21.437V24.653L22.3258 22.896L22.3718 22.374L23.0978 14.237L23.1738 13.407H22.3408H15.9888Z" fill="white"/>
<path d="M15.9888 7.15088V9.07088V10.2349V10.2419H23.4448H23.4548L23.5168 9.54788L23.6578 7.98088L23.7318 7.15088H15.9888Z" fill="white"/>
</svg>
