<svg width="32" height="32" viewBox="0 0 32 32" fill="none" xmlns="http://www.w3.org/2000/svg">
<path d="M29.9891 15.27C29.9801 14.911 29.9611 14.542 29.9421 14.183C29.9231 13.824 29.9141 13.446 29.8761 13.077C29.8101 12.577 29.7441 12.066 29.6301 11.577C29.5358 11.175 29.4125 10.7803 29.2611 10.396C29.0893 9.93553 28.8937 9.48425 28.6751 9.04402C28.2795 8.36133 27.8454 7.7016 27.3751 7.06802C27.0821 6.65202 26.7041 6.31202 26.4201 5.88702C26.2438 5.64113 26.0302 5.4242 25.7871 5.24402C25.4091 4.94402 25.0121 4.66702 24.6151 4.40302C24.3151 4.19502 24.0151 3.99702 23.6891 3.81702C23.4341 3.67502 23.1601 3.56202 22.8951 3.43902C22.6002 3.27439 22.2857 3.1474 21.9591 3.06102C21.8759 3.04001 21.7937 3.01464 21.7131 2.98502C21.4961 2.90902 21.2881 2.82402 21.0701 2.75802C20.7391 2.65802 20.4181 2.53102 20.0781 2.44602C19.745 2.36394 19.4074 2.30084 19.0671 2.25702C18.6891 2.20002 18.3011 2.18102 17.9231 2.14402C17.6771 2.11602 17.4311 2.08702 17.1951 2.07802C16.8361 2.05902 16.4671 2.05902 16.1081 2.05002C15.9259 2.0343 15.743 2.02796 15.5601 2.03102C15.285 2.04231 15.0107 2.06768 14.7381 2.10702C14.4731 2.13502 14.2091 2.18302 13.9531 2.22002C13.6411 2.25802 13.3291 2.27702 13.0171 2.31502C12.7241 2.35302 12.4171 2.41002 12.1291 2.45702C12.0291 2.47602 11.9211 2.51402 11.8171 2.53302C11.5845 2.56678 11.3541 2.61419 11.1271 2.67502C10.7211 2.79802 10.3141 2.94002 9.91713 3.09102C9.54949 3.23842 9.18998 3.40532 8.84013 3.59102C8.48113 3.79102 8.14013 4.02602 7.80013 4.25302C7.47913 4.47002 7.15713 4.69702 6.84513 4.94302C6.54533 5.18321 6.25827 5.43889 5.98513 5.70902C5.83413 5.86002 5.71113 6.04002 5.56913 6.20902C5.33313 6.48302 5.09613 6.74802 4.86913 7.03102C4.68013 7.26702 4.51013 7.51302 4.33013 7.75902C4.01656 8.19329 3.73226 8.64796 3.47913 9.12002C3.37913 9.30902 3.27913 9.49802 3.18613 9.68702C3.04413 9.97102 2.89313 10.245 2.76113 10.538C2.66588 10.7415 2.58988 10.9534 2.53413 11.171C2.40213 11.634 2.26913 12.107 2.14613 12.571C2.04615 12.9875 1.99713 13.4147 2.00013 13.843C1.9985 14.219 2.02055 14.5948 2.06613 14.968C2.07513 15.062 2.01913 15.176 2.13213 15.252C2.14113 15.252 2.13213 15.29 2.12213 15.299C2.11564 15.3112 2.11198 15.3247 2.11141 15.3385C2.11085 15.3523 2.1134 15.3661 2.11887 15.3787C2.12435 15.3914 2.13261 15.4027 2.14304 15.4117C2.15347 15.4208 2.16581 15.4274 2.17913 15.431C2.18412 15.4362 2.18728 15.4429 2.18813 15.45H2.14313C2.11513 15.535 2.20913 15.601 2.17113 15.696C2.16213 15.715 2.19913 15.753 2.21813 15.781C2.21347 15.8122 2.21347 15.8439 2.21813 15.875C2.23923 15.9623 2.25493 16.0508 2.26513 16.14C2.26513 16.206 2.32213 16.282 2.34113 16.348C2.34527 16.3641 2.3457 16.3809 2.34241 16.3972C2.33912 16.4135 2.33219 16.4288 2.32213 16.442C2.26513 16.508 2.27513 16.565 2.36013 16.603C2.3837 16.6182 2.40053 16.6418 2.40713 16.669C2.40238 16.7263 2.39301 16.7832 2.37913 16.839C2.39813 16.858 2.40713 16.877 2.39813 16.896C2.38913 16.915 2.37013 16.953 2.37913 16.972C2.44979 17.1263 2.48824 17.2934 2.49213 17.463C2.49735 17.506 2.51022 17.5476 2.53013 17.586C2.54955 17.5851 2.56895 17.5881 2.58713 17.595L2.53013 17.765C2.57231 17.7421 2.61649 17.723 2.66213 17.708C2.68695 17.8232 2.71867 17.9367 2.75713 18.048C2.77102 18.0715 2.79063 18.0911 2.81413 18.105C2.80413 18.124 2.80413 18.162 2.78613 18.171C2.81253 18.3383 2.85369 18.503 2.90913 18.663C2.91913 18.663 2.92813 18.653 2.93713 18.653C2.90913 18.483 2.89013 18.303 2.86113 18.133V18.076C2.86991 18.0713 2.87935 18.0679 2.88913 18.066C2.90179 18.1028 2.91116 18.1406 2.91713 18.179C2.99313 18.179 3.10613 18.226 3.18213 18.226C3.19002 18.1972 3.19936 18.1689 3.21013 18.141C3.15313 18.084 3.11013 17.999 3.04913 17.941C3.05924 17.9844 3.05924 18.0296 3.04913 18.073C3.01113 18.054 2.96413 18.035 2.91713 18.016C2.95808 17.9631 3.00216 17.9127 3.04913 17.865C3.04913 17.78 3.00213 17.704 2.86913 17.714C2.92613 17.695 2.98313 17.667 3.04913 17.648C3.05688 17.6739 3.06623 17.6993 3.07713 17.724C3.15313 17.592 3.03913 17.488 3.03913 17.355C3.01848 17.1876 2.98061 17.0227 2.92613 16.863C2.87913 16.598 2.88813 16.201 2.86013 15.937C2.86013 15.918 2.83213 15.899 2.81313 15.88C2.80313 15.89 2.75613 16.012 2.74713 16.022C2.77513 16.249 2.80413 16.476 2.82313 16.703C2.81413 16.703 2.80413 16.703 2.80413 16.712C2.76613 16.512 2.72813 16.306 2.68113 16.079C2.67212 16.1226 2.66577 16.1667 2.66213 16.211C2.63413 16.202 2.62413 16.192 2.57713 16.173C2.61513 16.258 2.65313 16.315 2.67713 16.381C2.63194 16.3637 2.5833 16.3571 2.53513 16.362V16.627C2.46968 16.5551 2.41265 16.4759 2.36513 16.391C2.34613 16.315 2.33713 16.24 2.31813 16.164L2.34613 16.154C2.3338 16.1237 2.32443 16.0922 2.31813 16.06C2.3088 15.9934 2.29946 15.9177 2.29013 15.833C2.29913 15.824 2.33713 15.814 2.35613 15.795L2.28013 15.682C2.3364 15.6915 2.39316 15.6978 2.45013 15.701C2.45013 15.682 2.45913 15.673 2.45013 15.663C2.35513 15.578 2.42213 15.502 2.45913 15.427C2.47813 15.389 2.54413 15.38 2.55913 15.342C2.63513 15.2 2.75913 15.087 2.75913 14.907C2.76717 14.8181 2.77985 14.7296 2.79713 14.642C2.81613 14.481 2.83513 14.321 2.84413 14.16C2.84846 13.9556 2.86718 13.7518 2.90013 13.55C2.97613 13.219 3.07013 12.888 3.17413 12.558C3.25013 12.322 3.33513 12.095 3.42913 11.858C3.56092 11.4878 3.71247 11.125 3.88313 10.771C4.13813 10.261 4.43113 9.77102 4.71513 9.27102C4.89513 8.95902 5.08413 8.67102 5.28213 8.36402C5.48013 8.05702 5.66013 7.76402 5.88213 7.49402C6.18066 7.10696 6.51551 6.74933 6.88213 6.42602C7.26013 6.08602 7.61913 5.73602 8.02613 5.42602C8.55195 5.01785 9.11203 4.65584 9.70013 4.34402C10.1823 4.09808 10.6797 3.88299 11.1891 3.70002C11.5101 3.57702 11.8601 3.52102 12.1891 3.41602C12.5621 3.29666 12.9506 3.23297 13.3421 3.22702C13.5971 3.21802 13.8421 3.18902 14.0981 3.16102C14.3251 3.14202 14.5521 3.12302 14.7981 3.09502C14.7798 3.1186 14.764 3.14408 14.7511 3.17102C14.6511 3.32202 14.5341 3.47102 14.4301 3.62502C14.3451 3.74802 14.2501 3.88002 14.1651 4.00302C14.0141 4.20302 13.8531 4.40302 13.7111 4.60302C13.4941 4.91502 13.2951 5.23602 13.0681 5.54802C12.8411 5.86002 12.5951 6.13402 12.3591 6.42702C12.0471 6.83302 11.7591 7.24902 11.4421 7.65602C11.1581 8.04402 10.8561 8.41202 10.5821 8.80002C10.3361 9.14002 10.1191 9.50002 9.88213 9.84902C9.53213 10.369 9.18213 10.879 8.83313 11.399C8.55913 11.799 8.28513 12.184 8.00113 12.581C7.9801 12.6052 7.9542 12.6246 7.92513 12.638C7.90613 12.657 7.86813 12.676 7.86813 12.695C7.85815 12.7593 7.84242 12.8226 7.82113 12.884C7.74513 13.026 7.67013 13.168 7.58513 13.3C7.53813 13.376 7.47213 13.442 7.41513 13.517C7.39613 13.508 7.38713 13.498 7.36813 13.498C7.40613 13.403 7.56813 13.347 7.49113 13.205C7.44413 13.281 7.39613 13.347 7.34913 13.422L7.23613 13.649C7.27413 13.677 7.33613 13.696 7.27413 13.749C7.24613 13.796 7.21713 13.849 7.18913 13.9C7.19913 13.9 7.19913 13.909 7.20813 13.909C7.23613 13.871 7.26513 13.843 7.29313 13.809C7.30213 13.809 7.31213 13.819 7.32113 13.819C7.28672 13.9118 7.24247 14.0007 7.18913 14.084C7.1345 14.1586 7.06673 14.2227 6.98913 14.273C6.99913 14.282 7.06513 14.311 7.07413 14.32C7.10213 14.282 7.11213 14.301 7.14013 14.263C7.15913 14.291 7.18713 14.244 7.19713 14.272C7.22313 14.2437 7.24532 14.2121 7.26313 14.178C7.27816 14.132 7.30277 14.0896 7.33535 14.0538C7.36792 14.0179 7.40773 13.9894 7.45213 13.97C7.4884 13.9522 7.52151 13.9285 7.55013 13.9C7.83413 13.607 8.12713 13.323 8.38213 13.012C8.78213 12.53 9.13813 12.029 9.51613 11.537C9.67713 11.329 9.86613 11.121 10.0361 10.923C10.0551 10.933 10.0741 10.933 10.0831 10.942C10.0641 11.142 10.0451 11.348 10.0361 11.542C10.0081 11.892 9.98913 12.242 9.96013 12.601C9.95113 12.743 9.96013 12.885 9.95113 13.026C9.95113 13.064 9.92313 13.092 9.92313 13.126C9.92313 13.22 9.95113 13.326 9.95113 13.419C9.92313 13.769 9.88513 14.109 9.85613 14.459C9.85718 14.5338 9.87316 14.6075 9.90313 14.676C9.88898 14.6616 9.87321 14.6488 9.85613 14.638C9.90495 15.1787 9.9113 15.7224 9.87513 16.264C9.91313 16.254 9.93213 16.245 9.93213 16.226C9.94613 16.1601 9.95549 16.0933 9.96013 16.026C9.96492 15.9661 9.96492 15.9059 9.96013 15.846V15.752C9.98363 15.5797 9.99299 15.4058 9.98813 15.232C9.96606 15.0495 9.97247 14.8646 10.0071 14.684C10.0261 14.608 9.99813 14.514 10.0451 14.419V14.561C10.0561 15.1005 10.0341 15.6402 9.97913 16.177C9.97013 16.224 10.0071 16.309 9.90313 16.3C9.89313 16.3 9.88413 16.347 9.86513 16.376C9.81813 16.47 9.92213 16.593 9.82713 16.688C9.80813 16.707 9.84613 16.788 9.85513 16.849C9.85513 16.868 9.86513 16.887 9.85513 16.896C9.81713 16.962 9.81713 16.962 9.87413 16.972C9.88413 17.18 9.90213 17.372 9.91213 17.572H9.94013C10.0065 17.2089 10.0443 16.8411 10.0531 16.472C10.066 16.626 10.0694 16.7806 10.0631 16.935C10.0631 17.181 10.0531 17.417 10.0441 17.663C10.0424 17.7109 10.0361 17.7584 10.0251 17.805C10.0069 17.9364 9.97847 18.0661 9.94013 18.193C9.91447 18.3078 9.90805 18.4261 9.92113 18.543V18.902C9.92113 18.912 9.94913 18.94 9.94913 18.978C9.95813 19.063 9.91113 19.148 9.93913 19.243C9.94913 19.262 9.93013 19.29 9.92013 19.309C9.90793 19.3356 9.90477 19.3655 9.91113 19.394L9.93913 19.536C9.93913 19.545 9.94913 19.555 9.95813 19.574C9.9647 19.5492 9.96806 19.5237 9.96813 19.498C10.1291 19.517 10.0441 19.659 10.1191 19.734C10.0811 19.753 10.0531 19.762 10.0531 19.772C10.0665 19.8041 10.0759 19.8377 10.0811 19.872C10.0795 19.9543 10.0731 20.0364 10.0621 20.118C10.0621 20.335 10.0521 20.553 10.0521 20.761C10.0521 20.789 10.0621 20.818 10.0621 20.846C10.0621 20.874 10.0521 20.884 10.0521 20.912V21.112H10.0901C10.0711 21.1426 10.049 21.171 10.0241 21.197C10.0151 21.197 9.98613 21.197 9.98613 21.188V20.006H9.84713C9.86514 20.5429 9.83973 21.0803 9.77113 21.613C9.6804 21.6275 9.58892 21.6369 9.49713 21.641C9.20413 21.641 8.91113 21.641 8.61813 21.65C8.26813 21.65 7.92813 21.66 7.57813 21.66C7.40813 21.66 7.22813 21.679 7.05813 21.679C6.83113 21.679 6.59513 21.651 6.36813 21.651C6.01813 21.651 5.67813 21.679 5.32813 21.689C5.07313 21.698 4.81813 21.698 4.56213 21.708C4.39213 21.717 4.22213 21.727 4.05213 21.746C3.97184 21.7617 3.89292 21.7838 3.81613 21.812C3.76591 21.8073 3.71535 21.8073 3.66513 21.812C3.57013 21.831 3.48513 21.888 3.39113 21.907C3.24913 21.935 3.21113 21.973 3.23013 22.115V22.209C3.2105 22.1903 3.18827 22.1744 3.16413 22.162C3.15698 22.1629 3.15031 22.166 3.14513 22.171C3.15413 22.199 3.17313 22.218 3.18313 22.247C3.22113 22.228 3.26813 22.181 3.30613 22.181H3.43813C3.41913 22.181 3.41013 22.238 3.38113 22.281C3.45713 22.253 3.50413 22.234 3.55113 22.215C3.55775 22.2398 3.56078 22.2654 3.56013 22.291C3.68149 22.2663 3.80587 22.2599 3.92913 22.272C4.29929 22.357 4.67537 22.4139 5.05413 22.442C5.30013 22.461 5.53613 22.47 5.78213 22.48C6.13213 22.499 6.48213 22.518 6.83113 22.518C7.12413 22.518 7.40813 22.49 7.70113 22.49C8.10713 22.49 8.51413 22.509 8.92013 22.518C9.00513 22.518 9.10013 22.508 9.19413 22.508H9.88413C10.4981 22.489 11.1131 22.48 11.7271 22.461C12.0771 22.452 12.4361 22.433 12.7861 22.423L13.8631 22.395C14.2791 22.386 14.6951 22.386 15.1011 22.376C15.4131 22.376 15.7151 22.367 16.0271 22.357C16.3771 22.347 16.7361 22.319 17.0861 22.3C17.2751 22.291 17.4641 22.272 17.6531 22.253C17.8801 22.234 18.1161 22.206 18.3431 22.196C18.6831 22.177 19.0331 22.168 19.3731 22.149C19.7981 22.121 20.2241 22.083 20.6581 22.073C21.0581 22.054 21.4581 22.064 21.8581 22.054C22.2081 22.045 22.5581 22.026 22.9171 22.016L23.5171 21.988C23.5171 21.988 23.9171 21.979 24.1171 21.96C24.4571 21.941 24.7981 21.903 25.1381 21.894C25.3551 21.885 25.5731 21.894 25.7901 21.885C26.1401 21.875 26.4991 21.857 26.8491 21.857C26.9811 21.857 27.1231 21.876 27.2931 21.885C27.2171 21.951 27.1701 21.985 27.1131 22.036C27.1523 22.0477 27.1902 22.0635 27.2261 22.083C27.2261 22.093 27.2171 22.102 27.2171 22.121C27.1701 22.121 27.1231 22.131 27.0751 22.131C27.0486 22.1817 27.0294 22.2359 27.0181 22.292H27.1881C27.1221 22.292 27.0651 22.377 26.9991 22.434C27.0091 22.443 27.0181 22.443 27.0271 22.453C26.9271 22.415 26.8571 22.434 26.8191 22.538C26.8437 22.5457 26.8695 22.5487 26.8951 22.547C26.8861 22.575 26.8761 22.604 26.8671 22.641C26.8553 22.6611 26.8488 22.6838 26.8481 22.707L26.8201 22.679C26.8218 22.6596 26.8187 22.64 26.8111 22.622C26.7541 22.679 26.6691 22.717 26.7161 22.839C26.6781 22.858 26.6311 22.877 26.5841 22.905C26.5988 22.9258 26.6115 22.9479 26.6221 22.971C26.5371 22.98 26.4521 22.999 26.4711 23.103C26.5091 23.112 26.5471 23.131 26.5711 23.141C26.5241 23.16 26.4771 23.188 26.4291 23.207C26.4191 23.226 26.4101 23.273 26.3911 23.283C26.2591 23.311 26.3341 23.359 26.3721 23.406C26.3459 23.4253 26.3174 23.4411 26.2871 23.453C26.312 23.4599 26.3347 23.473 26.3531 23.491C26.332 23.5052 26.31 23.5179 26.2871 23.529C26.3051 23.5403 26.3242 23.5496 26.3441 23.557C26.3061 23.585 26.2588 23.6227 26.2021 23.67C26.2006 23.6862 26.2037 23.7025 26.2111 23.717C26.1689 23.7569 26.1311 23.8012 26.0981 23.849C26.0684 23.9139 26.0351 23.977 25.9981 24.038C25.8261 24.2768 25.6245 24.4929 25.3981 24.681C25.3032 24.7519 25.2145 24.8309 25.1331 24.917C24.9631 25.078 24.8121 25.257 24.6331 25.409C24.3971 25.609 24.1511 25.787 23.8961 25.967C23.5841 26.184 23.2721 26.402 22.9601 26.61C22.7901 26.723 22.6011 26.81 22.4211 26.91C22.2411 27.01 22.0711 27.11 21.8921 27.21C21.7849 27.2972 21.6713 27.3761 21.5521 27.446C21.2401 27.578 20.9091 27.692 20.5881 27.815C20.5601 27.824 20.5411 27.834 20.5121 27.843C20.2761 27.943 20.0491 28.06 19.8121 28.143C19.5926 28.2174 19.3684 28.2775 19.1411 28.323C19.0594 28.331 18.9772 28.334 18.8951 28.332C18.7341 28.36 18.5741 28.398 18.4131 28.417C17.9971 28.474 17.5811 28.511 17.1651 28.568C16.9191 28.596 16.6831 28.644 16.4371 28.668C16.2671 28.678 16.0871 28.659 15.9171 28.659C15.7915 28.6715 15.6652 28.6745 15.5391 28.668C15.3391 28.64 15.1391 28.592 14.9391 28.555C14.8906 28.5383 14.8383 28.5352 14.7881 28.546C14.7121 28.584 14.6461 28.527 14.5711 28.546C14.5241 28.555 14.4771 28.518 14.4291 28.518C14.3811 28.518 14.3441 28.527 14.2971 28.518C14.1975 28.48 14.0917 28.4607 13.9851 28.461C13.8654 28.453 13.7474 28.4274 13.6351 28.385L13.1351 28.272C13.0688 28.2517 13.0053 28.2231 12.9461 28.187C12.9206 28.2034 12.8914 28.213 12.8611 28.215C12.7009 28.1984 12.5426 28.1669 12.3881 28.121C12.2645 28.0573 12.1272 28.025 11.9881 28.027C11.9501 28.036 11.9221 28.017 11.8881 28.017C11.8601 27.979 11.8311 27.904 11.8031 27.904C11.6141 27.914 11.5031 27.753 11.3401 27.704C11.2551 27.676 11.1891 27.581 11.1041 27.553C10.8961 27.468 10.7261 27.288 10.4901 27.26C10.4093 27.242 10.3303 27.2165 10.2541 27.184C10.2771 27.2175 10.3025 27.2493 10.3301 27.279L10.3111 27.298C10.0561 27.147 9.80113 26.998 9.54513 26.854C9.50713 26.844 9.47913 26.807 9.45013 26.788L9.19513 26.618C9.16713 26.599 9.11013 26.571 9.11013 26.58C9.05313 26.646 8.99713 26.59 8.95913 26.571C8.70413 26.391 8.41113 26.278 8.16513 26.079C8.05527 26.0098 7.95448 25.9272 7.86513 25.833C7.73413 25.6792 7.5732 25.5537 7.39213 25.464C7.25013 25.388 7.11813 25.303 6.98613 25.218C6.9481 25.1976 6.91598 25.1678 6.89286 25.1313C6.86974 25.0949 6.8564 25.0531 6.85413 25.01C6.85413 24.944 6.82613 24.878 6.74113 24.916C6.70313 24.859 6.66513 24.793 6.61813 24.774C6.51547 24.721 6.42276 24.6507 6.34413 24.566C6.25913 24.49 6.19313 24.386 6.08913 24.349C5.92187 24.2626 5.77886 24.1358 5.67313 23.98C5.40813 23.668 5.17313 23.328 4.92613 22.997C4.89997 22.9694 4.87154 22.9439 4.84113 22.921L4.83113 22.931C4.87813 23.025 4.92613 23.111 4.97313 23.205C4.96313 23.214 4.94513 23.224 4.93513 23.233C4.87813 23.167 4.81213 23.101 4.75513 23.033C4.74513 23.043 4.73613 23.052 4.72713 23.052L5.40013 24.146C5.45713 24.231 5.50013 24.316 5.56113 24.401C5.55031 24.4126 5.53742 24.4221 5.52313 24.429C5.47174 24.4181 5.42325 24.3964 5.38085 24.3654C5.33845 24.3344 5.3031 24.2947 5.27713 24.249C5.24989 24.1754 5.19873 24.113 5.13183 24.0718C5.06493 24.0306 4.98617 24.0131 4.90813 24.022C4.88795 23.9538 4.87225 23.8843 4.86113 23.814C4.81695 23.8148 4.77279 23.8118 4.72913 23.805C4.86113 24.013 4.97513 24.193 5.09813 24.405C5.05113 24.377 5.02213 24.358 5.00413 24.348C5.17413 24.528 5.29713 24.754 5.51413 24.868C5.56113 25.085 5.80713 25.189 5.86413 25.397L5.73213 25.369C5.65613 25.275 5.57113 25.18 5.48613 25.076C5.50285 25.1378 5.53175 25.1956 5.57113 25.246C5.67756 25.3899 5.79455 25.5256 5.92113 25.652C5.96813 25.699 6.03413 25.718 6.03413 25.803C6.0566 25.7831 6.0823 25.7672 6.11013 25.756C6.09525 25.7833 6.08254 25.8117 6.07213 25.841C6.11013 25.841 6.13813 25.85 6.16713 25.85C6.18613 25.907 6.15713 25.992 6.26713 25.973C6.27713 25.973 6.28613 25.982 6.29513 25.992C6.34213 26.115 6.41813 26.115 6.52213 26.068C6.53529 26.0636 6.54943 26.0631 6.56289 26.0665C6.57635 26.0698 6.58858 26.077 6.59813 26.087C6.64513 26.187 6.71113 26.2 6.79813 26.125C6.79813 26.172 6.80713 26.219 6.80713 26.257H6.85013C6.85013 26.238 6.84113 26.21 6.84113 26.163C6.88813 26.201 6.91713 26.22 6.93613 26.239C7.02176 26.3735 7.12691 26.4945 7.24813 26.598C7.42813 26.749 7.58813 26.91 7.75813 27.052C8.09239 27.3196 8.4498 27.5568 8.82613 27.761C9.28013 28.016 9.71413 28.29 10.1781 28.536C10.7378 28.8223 11.332 29.035 11.9461 29.169C12.1731 29.216 12.3901 29.263 12.6171 29.32C12.8171 29.377 13.0171 29.462 13.2171 29.509C13.5171 29.575 13.8311 29.632 14.1341 29.689L14.3421 29.717V29.736C14.4271 29.736 14.5311 29.698 14.5501 29.726C14.5971 29.802 14.6351 29.764 14.6921 29.754C14.7633 29.7379 14.8363 29.7316 14.9091 29.735C15.1698 29.7648 15.4318 29.7805 15.6941 29.782C15.7511 29.782 15.8361 29.735 15.8831 29.829C15.9021 29.819 15.9111 29.81 15.9301 29.801C15.9681 29.791 16.0151 29.791 16.0531 29.782V29.8C16.0284 29.8086 16.003 29.815 15.9771 29.819C16.0111 29.8261 16.0445 29.8354 16.0771 29.847C16.0637 29.8597 16.0477 29.8693 16.0301 29.875C16.0001 29.8873 15.9715 29.9031 15.9451 29.922C16.2561 29.9931 16.5791 29.9931 16.8901 29.922V29.865H16.9281C16.9301 29.8852 16.9366 29.9047 16.9471 29.922C17.3761 29.9592 17.8081 29.9043 18.2141 29.761C18.2521 29.808 18.2801 29.874 18.3371 29.78C18.3561 29.752 18.4031 29.742 18.4371 29.733C18.5205 29.6995 18.6111 29.6881 18.7001 29.7C18.7851 29.728 18.8131 29.653 18.8801 29.653C18.9878 29.6535 19.0952 29.6441 19.2011 29.625C19.2581 29.616 19.3141 29.587 19.3811 29.568C19.3818 29.563 19.3813 29.5579 19.3797 29.553C19.3782 29.5482 19.3756 29.5438 19.3721 29.54C19.3059 29.5294 19.2391 29.5231 19.1721 29.521C19.2851 29.464 19.3891 29.421 19.4931 29.37C19.4931 29.379 19.5031 29.379 19.5031 29.389C19.4751 29.398 19.4561 29.436 19.4181 29.436H19.5501C19.5221 29.436 19.4841 29.521 19.4371 29.578L20.3921 29.342V29.323C20.3541 29.332 20.3261 29.332 20.2971 29.342C20.2881 29.142 20.5051 29.21 20.5811 29.096C20.4861 29.124 20.3921 29.153 20.2971 29.172V29.153C20.6181 29.011 20.9491 28.869 21.2711 28.728C21.2711 28.738 21.2811 28.738 21.2811 28.747C21.2241 28.785 21.1681 28.813 21.0811 28.86C21.1224 28.8642 21.1635 28.8705 21.2041 28.879C21.2041 28.907 21.2041 28.926 21.1951 28.936C21.3561 28.926 21.3181 28.785 21.3651 28.7C21.3931 28.709 21.4311 28.728 21.4601 28.719C21.5434 28.698 21.6255 28.6726 21.7061 28.643C21.8011 28.615 21.8951 28.586 21.9901 28.548C22.1411 28.482 22.2831 28.397 22.4341 28.321C22.4717 28.3163 22.5096 28.3163 22.5471 28.321C22.5733 28.3176 22.597 28.3039 22.6131 28.283C22.6511 28.255 22.6891 28.198 22.7131 28.207C22.7404 28.2147 22.769 28.2169 22.7972 28.2135C22.8254 28.2101 22.8526 28.2011 22.8772 28.187C22.9019 28.173 22.9235 28.1541 22.9409 28.1317C22.9582 28.1092 22.9708 28.0835 22.9781 28.056C22.9881 28.056 22.9881 28.046 22.9971 28.046C23.0423 28.0097 23.0897 27.9763 23.1391 27.946C23.3471 27.833 23.5451 27.719 23.7531 27.606C23.7621 27.597 23.7811 27.606 23.8001 27.606C23.8288 27.6082 23.8576 27.6052 23.8851 27.597C24.0081 27.54 24.1211 27.474 24.2351 27.408C24.2071 27.398 24.2351 27.389 24.1411 27.38V27.36C24.2023 27.3492 24.2625 27.3335 24.3211 27.313L24.3021 27.294C24.5481 27.048 24.8601 26.869 25.0961 26.661C25.1272 26.6702 25.159 26.6765 25.1911 26.68C25.1986 26.6554 25.202 26.6297 25.2011 26.604C25.2369 26.5524 25.2782 26.5048 25.3241 26.462C25.5321 26.273 25.7591 26.112 25.9481 25.914C26.2221 25.64 26.4871 25.356 26.7331 25.063C26.9658 24.8039 27.1807 24.5293 27.3761 24.241C27.6411 23.835 27.8681 23.419 28.1041 22.993C28.2741 22.693 28.4251 22.393 28.5961 22.086C28.6151 22.058 28.6531 22.02 28.6811 22.02C28.9361 21.992 29.1911 21.973 29.4371 21.944C29.5003 21.9269 29.5608 21.9013 29.6171 21.868C29.5891 21.821 29.5701 21.768 29.5411 21.717C29.5121 21.666 29.4471 21.617 29.4091 21.556C29.372 21.5058 29.3402 21.4518 29.3141 21.395C29.2861 21.348 29.2571 21.31 29.2291 21.263C29.1699 21.1589 29.1161 21.0518 29.0681 20.942C29.0533 20.9109 29.0467 20.8764 29.0491 20.842C29.2191 20.473 29.2851 20.076 29.4491 19.708C29.587 19.3161 29.6822 18.9104 29.7331 18.498C29.7991 18.11 29.8331 17.723 29.8841 17.335C29.9121 17.061 29.9501 16.796 29.9601 16.522C30.0022 16.1074 30.0115 15.6901 29.9881 15.274L29.9891 15.27ZM6.22613 25.819C6.16013 25.743 6.10313 25.658 6.03713 25.583L6.06513 25.555C6.16513 25.669 6.27313 25.782 6.37713 25.905C6.32182 25.8866 6.27055 25.8568 6.22613 25.819ZM6.37713 25.904C6.40513 25.895 6.43413 25.895 6.46213 25.885C6.49013 25.932 6.50913 25.985 6.53813 26.046C6.40613 26.037 6.33813 25.98 6.37713 25.904ZM16.2071 29.804V29.78L16.7361 29.723V29.751C16.5609 29.7793 16.3843 29.7984 16.2071 29.808V29.804ZM18.5891 29.558C18.4571 29.586 18.3151 29.605 18.1831 29.624C18.1361 29.634 18.0831 29.681 18.0601 29.596C18.0411 29.605 18.0221 29.605 18.0031 29.615C18.0501 29.757 18.1641 29.643 18.2581 29.7C18.0501 29.728 17.8521 29.747 17.6581 29.776V29.757L17.8381 29.729V29.7C17.7438 29.6889 17.6491 29.6826 17.5541 29.681C17.5261 29.681 17.4881 29.719 17.4601 29.728C17.4201 29.7396 17.3788 29.746 17.3371 29.747C17.1761 29.756 17.0161 29.756 16.8641 29.766C16.8551 29.766 16.8361 29.756 16.8261 29.756V29.728L18.7161 29.473C18.7251 29.492 18.7251 29.511 18.7351 29.53C18.6869 29.5339 18.6392 29.5433 18.5931 29.558H18.5891ZM18.7311 29.463C18.9481 29.435 19.1471 29.416 19.3551 29.387C18.9201 29.51 18.7781 29.529 18.7311 29.463ZM10.5001 10.384C10.8001 9.96802 11.1141 9.55202 11.4171 9.12702C11.5111 9.00402 11.5871 8.87202 11.6821 8.74902C11.7157 8.71282 11.7537 8.68091 11.7951 8.65402L11.7851 8.63502C11.8201 8.59691 11.8515 8.55575 11.8791 8.51202C11.9225 8.43276 11.9602 8.35056 11.9921 8.26602C12.0021 8.2509 12.015 8.23797 12.0301 8.22802C12.1621 8.29402 12.1621 8.15202 12.2101 8.10502C12.2951 8.01102 12.3801 7.90502 12.4561 7.81202C12.5151 7.74027 12.5689 7.66441 12.6171 7.58502C12.6261 7.55702 12.5981 7.50902 12.5891 7.47202H12.5611C12.5891 7.45302 12.6181 7.42502 12.6461 7.40602C12.6561 7.40602 12.6561 7.40602 12.6651 7.39702C12.7221 7.31202 12.7781 7.22702 12.8351 7.15102C12.9478 6.99756 13.0711 6.8522 13.2041 6.71602C13.1851 6.76302 13.1661 6.81102 13.1471 6.84802C13.1561 6.84802 13.1561 6.85802 13.1661 6.85802C13.2791 6.70702 13.4021 6.56502 13.5161 6.41402C13.5061 6.40502 13.4971 6.39502 13.4881 6.39502C13.4411 6.44202 13.4031 6.48902 13.3561 6.53702C13.3461 6.52802 13.3371 6.51802 13.3281 6.51802C13.4231 6.39502 13.5171 6.27202 13.6121 6.13002C13.6401 6.17591 13.6654 6.22332 13.6881 6.27202C13.7261 6.17702 13.7641 6.11102 13.7881 6.04502C13.7601 6.07302 13.7221 6.10202 13.6941 6.13002L13.6651 6.10002L13.8351 5.84502C14.0151 5.59002 14.1941 5.32502 14.3741 5.07002C14.4401 4.97502 14.5251 4.90002 14.5821 4.80502C14.7896 4.46712 15.017 4.14188 15.2631 3.83102C15.3149 3.76657 15.3717 3.70638 15.4331 3.65102C15.4801 3.59402 15.5181 3.61302 15.5561 3.66102C15.8111 3.98202 16.0661 4.31302 16.3221 4.63502C16.5111 4.87102 16.7001 5.09802 16.8801 5.34402C17.0971 5.64402 17.3051 5.94402 17.5231 6.25102C17.7691 6.60102 18.0151 6.95102 18.2511 7.31002C18.6101 7.83902 18.9511 8.36902 19.3101 8.89802C19.5751 9.28602 19.8391 9.66402 20.0951 10.051H19.6131C19.1691 10.041 18.7131 10.004 18.2711 10.023C17.6711 10.051 17.0521 10.117 16.4471 10.165C15.6811 10.231 14.9061 10.241 14.1411 10.241C13.8671 10.241 13.5931 10.279 13.3191 10.298C12.9881 10.317 12.6671 10.336 12.3361 10.345C11.9481 10.364 11.5701 10.373 11.1831 10.383C10.9661 10.393 10.7391 10.383 10.5021 10.383L10.5001 10.384ZM21.3401 14.732V14.817C21.3311 14.817 21.3211 14.826 21.3021 14.826C21.2641 14.694 21.2261 14.552 21.1791 14.42C21.0932 14.1396 20.969 13.8725 20.8101 13.626C20.6211 13.361 20.4511 13.087 20.2621 12.813C20.2104 12.7485 20.1536 12.6883 20.0921 12.633C19.9027 12.4047 19.6834 12.2029 19.4401 12.033C19.064 11.7996 18.6686 11.5988 18.2581 11.433C18.1441 11.3839 18.0335 11.3271 17.9271 11.263H18.1541L19.7701 11.235C20.1201 11.225 20.4601 11.225 20.8101 11.207C20.8466 11.2041 20.8832 11.212 20.9152 11.2298C20.9473 11.2476 20.9733 11.2745 20.9901 11.307C21.0751 11.449 21.1601 11.59 21.2551 11.732C21.2701 11.7549 21.2797 11.7809 21.2831 11.808C21.2831 12.016 21.2831 12.233 21.2921 12.441C21.3011 12.649 21.3201 12.866 21.3301 13.084C21.3401 13.302 21.3111 13.528 21.3201 13.755C21.3301 14.076 21.3391 14.407 21.3391 14.738L21.3401 14.732ZM11.1701 11.565C11.6141 11.546 12.0401 11.518 12.4701 11.499C12.8101 11.48 13.1601 11.471 13.5001 11.452C13.6384 11.4378 13.7778 11.4378 13.9161 11.452C13.765 11.5226 13.6195 11.6049 13.4811 11.698C13.3111 11.811 13.1501 11.963 12.9811 12.086C12.8112 12.2135 12.6559 12.3593 12.5181 12.521C12.3381 12.738 12.1401 12.927 11.9511 13.135C11.8102 13.2795 11.6767 13.431 11.5511 13.589C11.3901 13.797 11.2511 14.024 11.0971 14.26C11.1441 13.36 11.1971 12.474 11.1631 11.566L11.1701 11.565ZM17.3421 20.658C17.0379 20.7436 16.7286 20.8104 16.4161 20.858C16.1461 20.8864 15.8745 20.8958 15.6031 20.886C15.3571 20.886 15.1211 20.877 14.8751 20.858C14.5959 20.8445 14.321 20.7837 14.0621 20.678C13.8351 20.578 13.5991 20.478 13.3721 20.366C13.1342 20.2608 12.9214 20.1061 12.7481 19.912C12.6115 19.7647 12.463 19.6289 12.3041 19.506C12.3321 19.6201 12.404 19.7186 12.5041 19.78C12.4571 19.837 12.3911 19.808 12.2961 19.657C12.2718 19.6716 12.2464 19.6843 12.2201 19.695C12.2481 19.629 12.2771 19.563 12.3051 19.506C12.2671 19.43 12.2201 19.345 12.1821 19.27C12.1061 19.147 12.0311 19.015 11.9651 18.892C11.9461 18.864 11.9461 18.835 11.9271 18.807C11.8802 18.7527 11.8361 18.6959 11.7951 18.637C11.723 18.5161 11.6442 18.3992 11.5591 18.287C11.5591 18.315 11.5681 18.344 11.5681 18.381C11.561 18.3819 11.5543 18.385 11.5491 18.39L11.3491 17.908C11.3391 17.908 11.3391 17.908 11.3301 17.918L11.5001 18.542C11.4901 18.542 11.4811 18.552 11.4721 18.552C11.4414 18.5146 11.4158 18.4732 11.3961 18.429C11.3771 18.353 11.3201 18.353 11.2731 18.382C11.2582 18.3965 11.247 18.4143 11.2404 18.4339C11.2338 18.4536 11.232 18.4745 11.2351 18.495C11.3011 18.656 11.3771 18.816 11.4521 18.977C11.4701 19.0323 11.4921 19.0861 11.5181 19.138C11.5281 19.157 11.5561 19.176 11.5561 19.204C11.5881 19.2792 11.6259 19.3517 11.6691 19.421C11.7541 19.534 11.8491 19.648 11.9341 19.761C12.0191 19.874 12.0951 19.997 12.1701 20.111C12.1801 20.13 12.2081 20.13 12.2171 20.139C12.2641 20.281 12.4251 20.385 12.5381 20.328C12.5661 20.545 12.8031 20.621 12.8971 20.828C12.7841 20.781 12.6971 20.743 12.6231 20.705C12.6141 20.715 12.6141 20.724 12.6041 20.743C12.7175 20.7973 12.828 20.8574 12.9351 20.923C13.03 20.9775 13.1215 21.0376 13.2091 21.103C13.3246 21.2047 13.4651 21.2737 13.6161 21.303C13.6126 21.2891 13.6061 21.2762 13.5971 21.265C13.8621 21.388 14.1361 21.52 14.3441 21.624C13.3611 21.643 12.3121 21.662 11.2251 21.681C11.2251 21.501 11.2161 21.331 11.2161 21.152C11.2239 21.08 11.2269 21.0075 11.2251 20.935C11.1971 20.5 11.1971 20.065 11.1401 19.64C11.0914 19.1911 11.0757 18.7392 11.0931 18.288C11.1021 18.042 11.0831 17.788 11.0741 17.541C11.0741 17.21 11.0741 16.889 11.0831 16.558C11.087 16.5119 11.0999 16.4671 11.1211 16.426H11.1491C11.1581 16.445 11.1491 16.473 11.1681 16.483C11.1961 16.511 11.2441 16.559 11.2631 16.549C11.3201 16.511 11.4051 16.473 11.4241 16.417C11.4688 16.3058 11.4912 16.1869 11.4901 16.067C11.4933 15.9939 11.5199 15.9238 11.5661 15.867C11.5837 15.8367 11.5994 15.8053 11.6131 15.773C11.5751 15.745 11.5371 15.726 11.4901 15.688C11.5281 15.588 11.5181 15.461 11.6601 15.404C11.6791 15.394 11.6791 15.347 11.6881 15.319C11.6971 15.243 11.7071 15.158 11.7161 15.083C11.7294 15.1039 11.7452 15.123 11.7631 15.14C11.7681 15.1298 11.7745 15.1204 11.7821 15.112C11.7821 15.074 11.7731 14.999 11.7821 14.999C11.8951 14.98 11.8481 14.857 11.9051 14.799C11.9141 14.79 11.8951 14.761 11.8951 14.742C11.8951 14.723 11.8951 14.695 11.9051 14.695C12.0371 14.667 12.0181 14.525 12.1051 14.459C12.1331 14.44 12.1431 14.412 12.1811 14.365C12.2571 14.497 12.1241 14.565 12.1151 14.658C12.2761 14.563 12.3231 14.337 12.2281 14.27C12.2657 14.2412 12.2993 14.2076 12.3281 14.17C12.4281 14.057 12.5451 13.953 12.6401 13.839C12.7061 13.754 12.7401 13.65 12.8101 13.565C12.8591 13.5168 12.9168 13.4785 12.9801 13.452C13.1525 13.3701 13.302 13.2468 13.4151 13.093C13.4387 13.0717 13.4641 13.0527 13.4911 13.036C13.5191 13.017 13.5761 13.017 13.5851 12.989C13.5941 12.961 13.5661 12.923 13.5471 12.895C13.5851 12.876 13.6231 12.838 13.6981 12.801C13.6701 12.858 13.6601 12.895 13.6411 12.933L13.6881 12.98C13.7731 12.914 13.9051 12.838 13.9881 12.78C13.9881 12.771 13.9411 12.733 13.9411 12.733C13.8841 12.761 13.7991 12.809 13.7141 12.846C13.7331 12.818 13.7331 12.799 13.7421 12.789C13.872 12.7014 14.0077 12.6225 14.1481 12.553C14.4791 12.402 14.8101 12.253 15.1401 12.109C15.2053 12.0915 15.2736 12.0884 15.3401 12.1C15.3658 12.1017 15.3916 12.0986 15.4161 12.091C15.5671 12.044 15.7161 11.997 15.8701 11.959C15.9379 11.9404 16.0079 11.931 16.0781 11.931C16.3621 11.94 16.6451 11.94 16.9291 11.959C17.0485 11.9697 17.1661 11.9953 17.2791 12.035C17.4247 12.0852 17.5667 12.1454 17.7041 12.215C17.8638 12.3006 18.0184 12.3955 18.1671 12.499C18.4411 12.679 18.6961 12.877 18.9671 13.038C19.2233 13.1981 19.4424 13.4108 19.6101 13.662C19.8448 13.9318 20.0275 14.2427 20.1491 14.579L20.2911 15.203C20.3419 15.3156 20.3645 15.4388 20.3571 15.562C20.3101 15.798 20.2721 16.044 20.2341 16.28C20.2109 16.3725 20.2014 16.4678 20.2061 16.563C20.2033 16.8468 20.132 17.1257 19.9981 17.376C19.9601 17.461 19.9031 17.546 19.8561 17.641C19.8794 17.6574 19.905 17.6702 19.9321 17.679L20.0171 17.509C20.0261 17.509 20.0261 17.509 20.0361 17.519C19.9891 17.651 19.9511 17.793 19.9041 17.925C19.7911 18.218 19.6771 18.525 19.5351 18.804C19.4438 18.9577 19.3437 19.106 19.2351 19.248C19.1401 19.38 19.0651 19.522 18.9701 19.648C18.8905 19.7563 18.7951 19.852 18.6871 19.932C18.4343 20.1256 18.1691 20.3023 17.8931 20.461C17.7186 20.558 17.5305 20.6281 17.3351 20.669L17.3421 20.658ZM12.3041 20.158L12.2951 20.167C12.2712 20.158 12.2489 20.1451 12.2291 20.129L12.0001 19.789C11.9899 19.7757 11.9829 19.7602 11.9796 19.7437C11.9763 19.7273 11.9768 19.7103 11.9811 19.694C12.0811 19.855 12.1891 20.006 12.3021 20.157L12.3041 20.158ZM18.1831 21.453C18.5892 21.2759 18.9614 21.0296 19.2831 20.725C19.329 20.6761 19.3795 20.6319 19.4341 20.593C19.8155 20.341 20.1407 20.0128 20.3891 19.629C20.6658 19.1814 20.9152 18.7176 21.1361 18.24C21.1532 18.2056 21.1723 18.1723 21.1931 18.14C21.195 19.2113 21.2772 20.281 21.4391 21.34L18.1871 21.453H18.1831ZM27.7681 21.17C27.7581 21.189 27.7401 21.208 27.7301 21.227C27.7217 21.1992 27.7154 21.1708 27.7111 21.142C27.6541 21.293 27.5311 21.218 27.4461 21.218C26.9361 21.227 26.4161 21.227 25.9051 21.227C25.4131 21.227 24.9131 21.227 24.4211 21.237C24.2601 21.237 24.0901 21.275 23.9291 21.284C23.5411 21.303 23.1541 21.312 22.7661 21.322C22.7381 21.322 22.7091 21.275 22.6661 21.237C22.6495 21.2669 22.6304 21.2953 22.6091 21.322C22.6001 21.303 22.5811 21.284 22.5621 21.256C22.5544 21.2819 22.545 21.3073 22.5341 21.332H22.5001C22.4719 21.2042 22.4528 21.0746 22.4431 20.944C22.4431 20.66 22.4711 20.377 22.4811 20.093C22.4901 19.961 22.4811 19.838 22.4811 19.715L22.5811 19.791C22.598 19.7581 22.617 19.7264 22.6381 19.696C22.6242 19.6886 22.6114 19.6792 22.6001 19.668C22.6191 19.659 22.6381 19.64 22.6381 19.63C22.6501 19.6057 22.6595 19.5803 22.6661 19.554C22.6622 19.4933 22.6528 19.4331 22.6381 19.374C22.6432 19.3746 22.6483 19.3742 22.6531 19.3726C22.658 19.3711 22.6624 19.3685 22.6661 19.365L22.7231 19.648H22.7511C22.7131 19.582 22.8361 19.525 22.7321 19.448C22.7231 19.439 22.7421 19.382 22.7421 19.354C22.7136 19.2924 22.6882 19.2293 22.6661 19.165C22.6865 19.1523 22.7088 19.1428 22.7321 19.137C22.7018 19.1195 22.6704 19.1038 22.6381 19.09C22.7321 19.005 22.7321 18.958 22.6481 18.863C22.6671 18.854 22.6861 18.854 22.6861 18.844C22.6892 18.7586 22.6828 18.6731 22.6671 18.589C22.6481 18.495 22.6951 18.381 22.5541 18.324C22.5629 18.3511 22.5757 18.3767 22.5921 18.4C22.5721 18.4071 22.5529 18.4165 22.5351 18.428C22.4121 18.315 22.4881 18.163 22.4591 17.993C22.5138 18.0091 22.5675 18.0281 22.6201 18.05C22.6011 17.984 22.5541 17.908 22.5261 17.823H22.4881V17.2C22.4881 17.209 22.5541 17.209 22.5881 17.219C22.5881 17.21 22.5971 17.2 22.5971 17.191C22.5691 17.153 22.5311 17.115 22.4971 17.068L22.5161 17.049C22.4702 16.9724 22.4565 16.8807 22.4781 16.794V16.132C22.5721 16.226 22.4311 16.349 22.5721 16.406V16.31H22.5631C22.5531 16.168 22.5531 16.026 22.5441 15.885H22.5251C22.5161 15.904 22.5161 15.913 22.5061 15.932H22.4871C22.5061 15.185 22.5251 14.439 22.5441 13.673C22.6415 13.7858 22.7301 13.9058 22.8091 14.032C23.0392 14.4156 23.2952 14.7831 23.5751 15.132C23.8021 15.444 24.0101 15.784 24.2181 16.106C24.4731 16.494 24.7181 16.881 24.9741 17.269C25.1631 17.562 25.3621 17.855 25.5601 18.139C25.7401 18.394 25.9291 18.639 26.1181 18.886C26.2791 19.103 26.4491 19.321 26.6091 19.538C26.7981 19.803 26.9871 20.067 27.1761 20.323C27.2701 20.455 27.3761 20.588 27.4761 20.723C27.5354 20.7907 27.6026 20.8512 27.6761 20.903C27.6628 20.9033 27.6496 20.8999 27.6381 20.893C27.6584 20.9226 27.6805 20.951 27.7041 20.978C27.8041 21.035 27.8171 21.091 27.7611 21.178L27.7681 21.17ZM28.2501 18.807V18.741C28.2501 18.76 28.2591 18.788 28.2501 18.807ZM28.5711 14.639C28.5435 14.6198 28.5181 14.5976 28.4951 14.573C28.4851 14.601 28.4951 14.63 28.4761 14.667C28.4671 14.639 28.4001 14.648 28.4001 14.62C28.3901 14.752 28.4571 14.885 28.4471 15.02C28.4751 15.001 28.5891 14.992 28.6171 14.963C28.6276 14.9731 28.6408 14.9797 28.6551 14.982C28.4661 15.124 28.5131 15.266 28.5981 15.426C28.6171 15.464 28.6741 15.539 28.6171 15.615C28.5981 15.634 28.6271 15.691 28.6361 15.738H28.6641V15.757L28.5791 15.785C28.5601 15.757 28.4471 15.7 28.4471 15.653V16.135C28.5411 16.163 28.5411 16.296 28.5791 16.362C28.5955 16.3387 28.6083 16.3131 28.6171 16.286L28.6271 16.295C28.619 16.3526 28.6063 16.4094 28.5891 16.465C28.5689 16.5461 28.5532 16.6282 28.5421 16.711C28.5421 16.72 28.5611 16.739 28.5611 16.749C28.4997 16.9931 28.4711 17.2443 28.4761 17.496C28.4481 17.676 28.4761 17.865 28.4571 18.054C28.435 18.2196 28.4036 18.3839 28.3631 18.546C28.3541 18.574 28.3351 18.584 28.2871 18.603C28.3028 18.5056 28.2994 18.4061 28.2771 18.31C28.2681 18.31 28.1451 18.244 28.1351 18.244C28.1569 18.4006 28.1903 18.5554 28.2351 18.707C28.2071 18.698 28.0931 18.631 28.0841 18.631C28.0651 18.744 28.0651 18.896 28.0561 19.019C28.0461 19.113 27.9611 19.199 27.9561 19.303C27.9561 19.36 28.0221 19.397 28.0131 19.492H28.0891C28.0891 19.303 28.1741 19.133 28.1741 18.934H28.2001C28.2091 18.953 28.2381 18.972 28.2281 18.981C28.1987 19.0855 28.1829 19.1934 28.1811 19.302C28.1811 19.359 28.2281 19.415 28.2091 19.482C28.1891 19.5471 28.1764 19.6142 28.1711 19.682C28.162 19.6513 28.1556 19.6199 28.1521 19.588L28.0521 19.579C28.0431 19.636 28.1181 19.692 28.1091 19.74C28.0991 19.75 28.0901 19.75 28.0711 19.759L27.7591 19.305C27.5131 18.946 27.2671 18.587 27.0221 18.218C26.9586 18.1276 26.9018 18.0327 26.8521 17.934C26.5593 17.4313 26.234 16.9483 25.8781 16.488C25.6041 16.138 25.3861 15.76 25.1311 15.388C24.8951 15.038 24.6581 14.698 24.4221 14.348C24.3371 14.235 24.2331 14.131 24.1571 14.008C23.9111 13.62 23.6941 13.223 23.4481 12.836C23.2401 12.515 23.0131 12.203 22.7961 11.891C22.7201 11.791 22.6451 11.674 22.5691 11.56C22.5573 11.54 22.5507 11.5173 22.5501 11.494C22.5311 11.286 22.5121 11.078 22.5031 10.88C22.4941 10.682 22.5221 10.502 22.5221 10.303V10.133C22.5221 10.086 22.5311 10.048 22.5311 10.001C22.5401 9.99102 22.5501 9.97302 22.5591 9.96302C22.2851 9.96302 22.0011 9.95402 21.7271 9.96302C21.6489 9.96646 21.5712 9.9499 21.5012 9.9149C21.4312 9.8799 21.3713 9.82763 21.3271 9.76302C20.9932 9.34592 20.6808 8.91202 20.3911 8.46302C20.0981 8.04702 19.7911 7.64102 19.4911 7.23402C19.2451 6.90302 19.0001 6.58202 18.7541 6.25102C18.4801 5.87302 18.2151 5.49502 17.9321 5.11702C17.5921 4.66302 17.2421 4.21002 16.8921 3.75602C16.7311 3.54802 16.5521 3.35002 16.3721 3.13202C16.4951 3.15102 16.6081 3.17002 16.7221 3.17902L17.1761 3.20702C17.5161 3.23502 17.8571 3.25402 18.1971 3.30202C18.4811 3.34002 18.7641 3.39702 19.0571 3.44402C19.6799 3.55365 20.2931 3.7118 20.8911 3.91702C21.2411 4.03002 21.5811 4.18202 21.9211 4.32302C22.6807 4.63795 23.421 4.99758 24.1381 5.40002C24.3408 5.53646 24.5195 5.7054 24.6671 5.90002C24.9131 6.15502 25.1591 6.41002 25.3951 6.67502C25.6691 6.98702 25.9241 7.30802 26.1891 7.63002C26.4251 7.91402 26.6711 8.19702 26.9071 8.48102C26.9792 8.57178 27.046 8.66661 27.1071 8.76502C27.2581 8.99202 27.4281 9.20902 27.5611 9.45502C27.6489 9.64427 27.7215 9.84023 27.7781 10.041C27.8721 10.334 27.9671 10.618 28.0621 10.911C28.1281 11.128 28.1851 11.355 28.2321 11.582C28.2701 11.733 28.2601 11.894 28.3081 12.045C28.3651 12.245 28.3081 12.461 28.3651 12.659C28.3741 12.678 28.3841 12.706 28.3931 12.725C28.4311 12.763 28.4591 12.801 28.4031 12.857C28.3931 12.8814 28.3931 12.9087 28.4031 12.933C28.421 12.9127 28.4367 12.8906 28.4501 12.867C28.4501 12.886 28.4591 12.895 28.4591 12.905C28.4545 12.9425 28.4545 12.9805 28.4591 13.018C28.4644 13.0415 28.4739 13.0639 28.4871 13.084C28.5113 13.0635 28.5366 13.0444 28.5631 13.027C28.6369 13.3462 28.6685 13.6736 28.6571 14.001C28.698 14.3116 28.6721 14.6273 28.5811 14.927C28.6091 14.827 28.5431 14.727 28.5711 14.634V14.639Z" fill="#DD3735"/>
<path d="M22.5629 18.3441C22.5701 18.3452 22.5768 18.3487 22.5819 18.3541L22.5719 18.3441C22.5719 18.3351 22.5719 18.3351 22.5629 18.3441ZM24.0559 27.6831C23.9561 27.7636 23.8401 27.8216 23.7159 27.8531C23.7069 27.8441 23.7069 27.8341 23.6969 27.8251C23.7969 27.7591 23.9139 27.6931 24.0179 27.6251C24.0269 27.6441 24.0459 27.6631 24.0559 27.6821V27.6831ZM6.33288 14.8751C6.43288 14.7431 6.54087 14.6101 6.65387 14.4751C6.66287 14.4841 6.73888 14.5031 6.74888 14.5131C6.64888 14.6451 6.50288 14.8251 6.39888 14.9671C6.37988 14.9481 6.35188 14.8821 6.33288 14.8731V14.8751ZM3.64887 19.5071C3.57288 19.3461 3.49787 19.1761 3.42188 19.0151C3.44831 18.9986 3.47692 18.9858 3.50688 18.9771C3.59595 19.1346 3.67187 19.2991 3.73388 19.4691C3.70635 19.4835 3.67797 19.4962 3.64887 19.5071ZM6.05888 14.9701C6.00188 15.0551 5.94588 15.1501 5.88888 15.2351C5.87988 15.2261 5.77587 15.2731 5.76587 15.2631C5.82287 15.1781 5.96587 15.0271 6.02087 14.9421C6.0317 14.9537 6.04458 14.9632 6.05888 14.9701ZM23.0439 28.0701C23.0539 28.0701 23.0539 28.0601 23.0629 28.0601C23.1347 28.0715 23.2072 28.0779 23.2799 28.0791C23.1569 28.1641 23.0799 28.1551 23.0439 28.0701ZM6.07788 15.3661C6.08994 15.3359 6.10573 15.3074 6.12488 15.2811C6.14085 15.28 6.15664 15.277 6.17188 15.2721C6.20987 15.2061 6.20988 15.1591 6.24788 15.1021C6.23888 15.0931 6.22887 15.0931 6.21987 15.0831C6.16287 15.1211 6.10688 15.1681 6.04988 15.2061C6.05679 15.2117 6.06216 15.2189 6.06549 15.2271C6.06882 15.2354 6.06998 15.2443 6.06887 15.2531C5.99287 15.2441 5.96888 15.2811 5.92688 15.3851C5.91688 15.4131 5.86988 15.4231 5.82688 15.4611C5.81788 15.4801 5.80788 15.5271 5.78888 15.5741L5.79887 15.5841C5.7852 15.5964 5.76923 15.6059 5.75187 15.6121C5.69487 15.6691 5.62888 15.7121 5.57188 15.7731C5.56105 15.8002 5.55464 15.8289 5.55288 15.8581C5.61888 15.7921 5.73287 15.6691 5.81787 15.5931L5.82688 15.6021C5.86488 15.5451 5.89288 15.4891 5.92688 15.4321C5.93588 15.4411 5.93588 15.4511 5.94588 15.4601C5.91788 15.5361 5.88888 15.6211 5.86088 15.6961C5.84188 15.7051 5.81388 15.7241 5.81388 15.7151C5.77588 15.7431 5.74788 15.7811 5.71388 15.8101L5.54388 15.9231C5.44888 16.0081 5.35487 16.0841 5.25087 16.1691C5.18487 16.2691 5.11888 16.3691 5.04288 16.4901C5.15588 16.4621 5.18488 16.5091 5.17488 16.6031C5.30688 16.6221 5.31688 16.5181 5.35488 16.4421C5.36488 16.4231 5.37388 16.3851 5.39288 16.3761C5.47788 16.3001 5.57287 16.2341 5.66687 16.1591C5.68303 16.1339 5.68976 16.1038 5.68587 16.0741C5.68587 16.0651 5.63888 16.0651 5.60988 16.0551C5.69488 15.9601 5.81787 15.8001 5.90287 15.6961C5.94987 15.6681 5.99688 15.6301 5.99688 15.6011C5.98688 15.5011 6.05388 15.4691 6.12888 15.4311C6.11687 15.424 6.10649 15.4144 6.09839 15.4031C6.0903 15.3917 6.08467 15.3788 6.08187 15.3651L6.07788 15.3661Z" fill="#DD3735"/>
<path d="M6.2668 15.2619C6.2288 15.3279 6.1908 15.3849 6.1538 15.4509L6.0998 15.4229C6.09071 15.5161 6.05851 15.6055 6.00612 15.683C5.95373 15.7605 5.88281 15.8238 5.7998 15.8669C5.82902 15.8873 5.86426 15.8971 5.8998 15.8949C5.9278 15.8859 5.9468 15.8379 5.9658 15.8099L6.2208 15.4409L6.2998 15.2999L6.2618 15.2619H6.2668ZM3.1188 19.4119C3.1658 19.4119 3.2138 19.4219 3.2698 19.4219C3.2698 19.3839 3.3168 19.3939 3.3168 19.3559H3.3448C3.3448 19.4029 3.3548 19.4409 3.3548 19.4879H3.1548C3.1448 19.4779 3.1078 19.4219 3.1168 19.4119H3.1188ZM3.0428 18.9769C3.0148 18.9489 2.9668 18.9199 2.9668 18.8919C2.9668 18.8639 2.9858 18.8069 3.0138 18.7599C3.0328 18.8259 3.0418 18.8829 3.0608 18.9489C3.0508 18.9579 3.0428 18.9679 3.0428 18.9769ZM3.2788 18.3769C3.3168 18.4719 3.3548 18.5769 3.3918 18.6699C3.3647 18.6787 3.33908 18.6915 3.3158 18.7079C3.2778 18.6139 3.2308 18.5079 3.1928 18.4149C3.21829 18.3967 3.2482 18.3838 3.2788 18.3769ZM24.3188 27.4129C24.3778 27.3937 24.4379 27.378 24.4988 27.3659C24.4261 27.4184 24.3567 27.4751 24.2908 27.5359C24.2808 27.5259 24.2718 27.5169 24.2628 27.5169C24.2818 27.4789 24.3008 27.4509 24.3198 27.4169L24.3188 27.4129ZM12.6998 7.43594C12.7568 7.39794 12.7998 7.36994 12.8608 7.33594L12.8798 7.35494C12.8228 7.43094 12.7798 7.50594 12.7098 7.60094C12.7008 7.53494 12.7008 7.50094 12.6908 7.44994C12.6818 7.44994 12.6908 7.44994 12.7008 7.44094L12.6998 7.43594ZM15.4688 12.2189L15.7428 12.0959C15.7354 12.1395 15.732 12.1837 15.7328 12.2279C15.7022 12.217 15.6702 12.2106 15.6378 12.2089C15.5808 12.2179 15.4768 12.2939 15.4298 12.3029C15.4198 12.3029 15.4678 12.2269 15.4678 12.2179L15.4688 12.2189ZM22.5578 20.2339C22.5768 20.3279 22.7578 20.3759 22.5768 20.4699C22.6048 20.4889 22.6338 20.4979 22.6618 20.5169C22.6594 20.5312 22.6528 20.5445 22.6428 20.5549C22.6238 20.5649 22.5858 20.5829 22.5668 20.5739C22.5478 20.5649 22.5388 20.5359 22.5388 20.5169C22.5388 20.4319 22.5488 20.3479 22.5578 20.2339Z" fill="#DD3735"/>
</svg>
