<svg width="32" height="32" viewBox="0 0 32 32" fill="none" xmlns="http://www.w3.org/2000/svg">
<path d="M16.0005 18.8118C17.5461 18.8118 18.7989 17.541 18.7989 15.9734C18.7989 14.4058 17.5461 13.135 16.0005 13.135C14.455 13.135 13.2021 14.4058 13.2021 15.9734C13.2021 17.541 14.455 18.8118 16.0005 18.8118Z" fill="#00D8FF"/>
<path fill-rule="evenodd" clip-rule="evenodd" d="M16.0003 10.2021C19.7575 10.2021 23.2479 10.749 25.8796 11.668C29.0504 12.7752 31 14.4535 31 15.9732C31 17.5569 28.9338 19.3399 25.5288 20.4842C22.9544 21.3493 19.5668 21.8009 16.0003 21.8009C12.3435 21.8009 8.88083 21.377 6.2775 20.4747C2.98382 19.3328 1 17.5267 1 15.9732C1 14.4659 2.86143 12.8005 5.98772 11.6949C8.62926 10.7608 12.2058 10.2021 15.9997 10.2021H16.0003Z" stroke="#00D8FF" stroke-width="1.79424"/>
<path fill-rule="evenodd" clip-rule="evenodd" d="M11.047 13.1045C12.924 9.80323 15.1347 7.00956 17.2343 5.15625C19.764 2.92329 22.1713 2.04879 23.4692 2.80792C24.8218 3.59907 25.3124 6.30532 24.5886 9.8688C24.0419 12.563 22.7347 15.7651 20.953 18.8989C19.1261 22.1119 17.0343 24.9427 14.9633 26.7788C12.3427 29.1024 9.80906 29.9433 8.4823 29.1672C7.19485 28.4147 6.70253 25.9467 7.32014 22.6474C7.84198 19.8597 9.15156 16.4381 11.0464 13.1045L11.047 13.1045Z" stroke="#00D8FF" stroke-width="1.79424"/>
<path fill-rule="evenodd" clip-rule="evenodd" d="M11.0521 18.9073C9.16977 15.6097 7.88818 12.2712 7.35324 9.50065C6.70929 6.16247 7.16458 3.61017 8.46128 2.84884C9.81254 2.05537 12.3691 2.9758 15.0513 5.39152C17.0793 7.2179 19.1618 9.96522 20.9487 13.0961C22.7808 16.306 24.154 19.558 24.6881 22.2949C25.364 25.7583 24.817 28.4046 23.4914 29.1829C22.2053 29.9381 19.8517 29.1385 17.3421 26.948C15.2216 25.0973 12.953 22.2376 11.0521 18.9072V18.9073Z" stroke="#00D8FF" stroke-width="1.79424"/>
</svg>
