<svg width="32" height="32" viewBox="0 0 32 32" fill="none" xmlns="http://www.w3.org/2000/svg">
<path d="M27.5471 17.7799C26.4281 17.7864 25.4596 18.0549 24.6471 18.4549C24.3471 17.8609 24.0471 17.3424 23.9971 16.9549C23.9406 16.5049 23.8721 16.2299 23.9406 15.6924C24.0091 15.1549 24.3221 14.3924 24.3221 14.3299C24.3161 14.2734 24.2531 13.9984 23.6096 13.9924C22.9661 13.9864 22.4096 14.1174 22.3471 14.2864C22.2354 14.5987 22.1455 14.9183 22.0781 15.2429C21.9656 15.8304 20.7906 17.9119 20.1216 19.0059C19.9026 18.5809 19.7151 18.2059 19.6776 17.9059C19.6211 17.4559 19.5526 17.1809 19.6211 16.6434C19.6896 16.1059 20.0026 15.3434 20.0026 15.2809C19.9966 15.2244 19.9336 14.9494 19.2901 14.9434C18.6466 14.9374 18.0901 15.0684 18.0276 15.2374C17.9651 15.4064 17.8961 15.8064 17.7586 16.1939C17.6271 16.5814 16.0646 20.0569 15.6586 20.9629C15.4521 21.4254 15.2711 21.7944 15.1396 22.0444C15.0081 22.2944 15.1336 22.0634 15.1211 22.0884L14.9461 22.4199V22.4259C14.8586 22.5824 14.7646 22.7324 14.7211 22.7324C14.6901 22.7324 14.6271 22.3134 14.7336 21.7384C14.9651 20.5319 15.5276 18.6504 15.5211 18.5819C15.5211 18.5509 15.6276 18.2194 15.1586 18.0504C14.7021 17.8814 14.5396 18.1629 14.5021 18.1629C14.4646 18.1629 14.4331 18.2629 14.4331 18.2629C14.4331 18.2629 14.9396 16.1439 13.4641 16.1439C12.5391 16.1439 11.2641 17.1504 10.6326 18.0689L7.44455 19.8129L7.37555 19.7379C5.58905 17.8299 2.28255 16.4799 2.42005 13.9174C2.47005 12.9859 2.79505 10.5294 8.77005 7.55443C13.6641 5.11693 17.5836 5.78543 18.2651 7.27293C19.2341 9.39793 16.1711 13.3479 11.0831 13.9179C9.14555 14.1369 8.12655 13.3864 7.87005 13.1054C7.60105 12.8114 7.56355 12.7989 7.46355 12.8554C7.30105 12.9429 7.40105 13.2054 7.46355 13.3619C7.61355 13.7559 8.23855 14.4559 9.30105 14.8059C10.2326 15.1124 12.5076 15.2809 15.2581 14.2184C18.3396 13.0244 20.7461 9.71193 20.0396 6.94343C19.3206 4.12443 14.6456 3.19943 10.2261 4.76843C7.59505 5.70493 4.75005 7.16693 2.70005 9.08593C0.257553 11.3609 -0.129947 13.3489 0.032053 14.1739C0.601053 17.1179 4.65705 19.0369 6.28205 20.4559L6.05705 20.5809C5.24455 20.9809 2.15055 22.5999 1.37555 24.3124C0.500553 26.2499 1.51305 27.6439 2.18805 27.8314C4.27555 28.4129 6.41305 27.3689 7.56955 25.6499C8.71955 23.9309 8.58205 21.6999 8.05105 20.6809L8.03205 20.6434L8.66955 20.2684C9.08205 20.0244 9.48855 19.7994 9.84455 19.6059C9.64455 20.1499 9.50055 20.7934 9.42555 21.7309C9.33805 22.8309 9.78805 24.2559 10.3821 24.8189C10.6446 25.0629 10.9571 25.0689 11.1511 25.0689C11.8386 25.0689 12.1511 24.4999 12.4951 23.8189C12.9201 22.9874 13.2951 22.0249 13.2951 22.0249C13.2951 22.0249 12.8261 24.6314 14.1076 24.6314C14.5766 24.6314 15.0451 24.0249 15.2576 23.7124V23.7184C15.2576 23.7184 15.2701 23.6994 15.2951 23.6559C15.3451 23.5809 15.3701 23.5369 15.3701 23.5369V23.5244C15.5576 23.1994 15.9766 22.4554 16.6016 21.2244C17.4081 19.6369 18.1831 17.6494 18.1831 17.6494C18.1831 17.6494 18.2581 18.1369 18.4896 18.9369C18.6271 19.4119 18.9271 19.9309 19.1586 20.4369L18.8586 20.8494L18.8646 20.8559C18.7046 21.0679 18.5399 21.2763 18.3706 21.4809C17.7331 22.2434 16.9706 23.1124 16.8706 23.3624C16.7516 23.6564 16.7766 23.8749 17.0081 24.0499C17.1771 24.1749 17.4771 24.1999 17.7956 24.1749C18.3706 24.1374 18.7706 23.9934 18.9706 23.9059C19.3314 23.7773 19.6722 23.5984 19.9831 23.3744C20.6081 22.9119 20.9896 22.2554 20.9521 21.3804C20.9331 20.8989 20.7771 20.4239 20.5831 19.9739L20.7521 19.7239C21.7396 18.2799 22.5021 16.6924 22.5021 16.6924C22.5021 16.6924 22.5771 17.1799 22.8086 17.9799C22.9276 18.3864 23.1651 18.8299 23.3776 19.2674C22.4526 20.0239 21.8711 20.8989 21.6711 21.4739C21.3021 22.5364 21.5896 23.0179 22.1336 23.1304C22.3776 23.1804 22.7276 23.0679 22.9901 22.9554C23.3151 22.8489 23.7091 22.6679 24.0716 22.3989C24.6966 21.9364 25.2966 21.2924 25.2656 20.4239C25.2466 20.0239 25.1406 19.6299 24.9966 19.2549C25.7841 18.9299 26.8031 18.7424 28.0966 18.8984C30.8781 19.2234 31.4281 20.9609 31.3216 21.6859C31.2151 22.4109 30.6341 22.8109 30.4401 22.9359C30.2461 23.0549 30.1836 23.0984 30.2026 23.1859C30.2276 23.3174 30.3151 23.3109 30.4841 23.2859C30.7156 23.2484 31.9466 22.6919 31.9966 21.3544C32.0716 19.6354 30.4401 17.7604 27.5466 17.7794L27.5471 17.7799ZM6.09505 25.0124C5.17605 26.0189 3.88255 26.3999 3.33255 26.0749C2.73855 25.7309 2.97005 24.2499 4.10155 23.1809C4.78905 22.5309 5.68305 21.9309 6.27055 21.5619L6.83955 21.2179C6.87705 21.1929 6.90205 21.1804 6.90205 21.1804C6.94605 21.1554 6.99605 21.1239 7.04605 21.0929C7.46505 22.6179 7.06505 23.9554 6.09605 25.0119L6.09505 25.0124ZM12.8151 20.4434C12.4961 21.2249 11.8211 23.2309 11.4151 23.1184C11.0651 23.0244 10.8526 21.5059 11.3461 20.0054C11.5961 19.2489 12.1276 18.3489 12.4401 17.9989C12.9466 17.4364 13.4966 17.2489 13.6341 17.4799C13.7966 17.7799 13.0151 19.9554 12.8151 20.4434ZM18.3591 23.0934C18.2216 23.1624 18.0966 23.2124 18.0401 23.1749C17.9961 23.1499 18.0966 23.0559 18.0966 23.0559C18.0966 23.0559 18.7906 22.3119 19.0656 21.9684L19.6096 21.2744V21.3494C19.6096 22.2494 18.7471 22.8494 18.3596 23.0934H18.3591ZM22.6341 22.1184C22.5341 22.0434 22.5466 21.8119 22.8841 21.0869C23.0156 20.7994 23.3156 20.3179 23.8341 19.8619C23.8966 20.0494 23.9341 20.2309 23.9281 20.3994C23.9216 21.5244 23.1216 21.9434 22.6341 22.1184Z" fill="#CF649A"/>
</svg>
