<svg width="32" height="32" viewBox="0 0 32 32" fill="none" xmlns="http://www.w3.org/2000/svg">
<path fill-rule="evenodd" clip-rule="evenodd" d="M8 12.7999C9.0665 8.5334 11.7335 6.3999 16 6.3999C22.4 6.3999 23.2 11.1999 26.4 11.9999C28.5335 12.5334 30.4 11.7334 32 9.5999C30.9335 13.8664 28.2665 15.9999 24 15.9999C17.6 15.9999 16.8 11.1999 13.6 10.3999C11.4665 9.8664 9.6 10.6664 8 12.7999ZM0 22.3999C1.0665 18.1334 3.7335 15.9999 8 15.9999C14.4 15.9999 15.2 20.7999 18.4 21.5999C20.5335 22.1334 22.4 21.3334 24 19.1999C22.9335 23.4664 20.2665 25.5999 16 25.5999C9.6 25.5999 8.8 20.7999 5.6 19.9999C3.4665 19.4664 1.6 20.2664 0 22.3999Z" fill="url(#paint0_linear_245_19)"/>
<defs>
<linearGradient id="paint0_linear_245_19" x1="7.95185e-07" y1="-10.6666" x2="32" y2="42.6664" gradientUnits="userSpaceOnUse">
<stop stop-color="#2383AE"/>
<stop offset="1" stop-color="#6DD7B9"/>
</linearGradient>
</defs>
</svg>
