<svg width="23" height="23" viewBox="0 0 23 23" fill="none" xmlns="http://www.w3.org/2000/svg">
<path d="M11.1 3.32222V1.1M11.1 21.1V18.8778M5.59998 5.6L4.02886 4.02889M18.1711 18.1711L16.6 16.6M3.3222 11.1H1.09998M21.1 11.1H18.8778M5.59998 16.6L4.02886 18.1711M18.1711 4.02889L16.6 5.6M15.5444 11.1C15.5444 12.2787 15.0762 13.4092 14.2427 14.2427C13.4092 15.0762 12.2787 15.5444 11.1 15.5444C9.92124 15.5444 8.79077 15.0762 7.95728 14.2427C7.12378 13.4092 6.65553 12.2787 6.65553 11.1C6.65553 9.92126 7.12378 8.7908 7.95728 7.9573C8.79077 7.12381 9.92124 6.65555 11.1 6.65555C12.2787 6.65555 13.4092 7.12381 14.2427 7.9573C15.0762 8.7908 15.5444 9.92126 15.5444 11.1Z" stroke="black" stroke-width="2.2" stroke-linecap="round" stroke-linejoin="round"/>
</svg>
